<?xml version="1.0" encoding="utf-8"?>
<!-- Generator: Adobe Illustrator 23.0.1, SVG Export Plug-In . SVG Version: 6.00 Build 0)  -->
<svg version="1.1" id="Layer_1" xmlns="http://www.w3.org/2000/svg" xmlns:xlink="http://www.w3.org/1999/xlink" x="0px" y="0px"
	 viewBox="0 0 20 20" style="enable-background:new 0 0 20 20;" xml:space="preserve">
<style type="text/css">
	.st0{fill:#FFFFFF;}
	.st1{fill:none;}
</style>
<rect x="0" width="20" height="20"/>
<g>
	<path class="st0" d="M10,4.2612615c1.8690844,0,2.0904703,0.0071273,2.8285952,0.0408049
		c0.6824875,0.0311432,1.0531435,0.1451707,1.2998075,0.2410316c0.3267365,0.1269789,0.5599232,0.2786822,0.8048649,0.5236235
		c0.2449522,0.2449522,0.3966551,0.4781394,0.5236349,0.8048787c0.0958605,0.2466612,0.2098904,0.6173172,0.2410307,1.2997937
		C15.7316113,7.9095292,15.7387381,8.1309156,15.7387381,10s-0.0071268,2.0904703-0.0408049,2.8285952
		c-0.0311403,0.6824875-0.1451702,1.0531435-0.2410307,1.2998075c-0.1269798,0.3267365-0.2786827,0.5599241-0.5236235,0.8048649
		c-0.2449532,0.2449522-0.4781399,0.396656-0.8048763,0.5236349c-0.246664,0.0958605-0.6173201,0.2098913-1.2998075,0.2410316
		C12.0905762,15.7316113,11.8692093,15.7387381,10,15.7387381s-2.0905757-0.0071268-2.8285952-0.0408039
		c-0.6824875-0.0311403-1.0531435-0.1451712-1.2998047-0.2410316c-0.3267388-0.1269789-0.5599265-0.2786827-0.8048677-0.5236235
		c-0.2449465-0.2449474-0.3966556-0.4781399-0.5236344-0.8048763c-0.095861-0.246664-0.2098885-0.6173201-0.2410316-1.2997961
		C4.2683892,12.0904703,4.2612619,11.8690844,4.2612619,10s0.0071273-2.0904708,0.0408044-2.8285952
		C4.3332095,6.4889174,4.447237,6.1182613,4.543098,5.8716002c0.1269789-0.3267393,0.2786822-0.5599265,0.5236239-0.8048677
		C5.3116736,4.8217802,5.5448613,4.6700768,5.8716002,4.543098c0.2466612-0.095861,0.6173172-0.2098885,1.2997937-0.2410316
		C7.9095292,4.2683887,8.1309156,4.2612615,10,4.2612615 M10,2.9999998c-1.9010887,0-2.1394668,0.0080526-2.8860884,0.0421162
		C6.3688293,3.0761127,5.8599939,3.1944444,5.4147258,3.3674908c-0.4603066,0.1788869-0.850688,0.4182348-1.2398467,0.8073878
		C3.7857256,4.5640378,3.5463779,4.9544191,3.3674912,5.4147258C3.1944447,5.8599939,3.076113,6.3688293,3.0421162,7.1139116
		C3.0080526,7.8605332,3,8.0989056,3,10c0,1.9010887,0.0080526,2.1394663,0.0421162,2.8860884
		c0.0339968,0.7450819,0.1523285,1.2539148,0.3253751,1.6991863c0.1788867,0.4603004,0.4182343,0.850688,0.8073878,1.2398462
		c0.3891587,0.3891544,0.7795401,0.6285019,1.2398467,0.8073883c0.4452682,0.1730461,0.9541035,0.291378,1.6991858,0.3253746
		C7.8605332,16.9919567,8.0989113,17,10,17s2.1394663-0.0080433,2.8860884-0.0421162
		c0.7450819-0.0339966,1.2539148-0.1523285,1.6991863-0.3253746c0.4603062-0.1788864,0.850687-0.4182339,1.2398462-0.8073883
		c0.3891525-0.3891582,0.6285019-0.7795401,0.8073883-1.2398462c0.1730461-0.4452715,0.291378-0.9541044,0.3253746-1.6991863
		C16.9919472,12.1394663,17,11.9010887,17,10s-0.0080528-2.1394668-0.0421162-2.8860884
		c-0.0339966-0.7450824-0.1523285-1.2539177-0.3253746-1.6991858c-0.1788864-0.4603066-0.4182358-0.850688-0.8073883-1.2398472
		c-0.3891592-0.389153-0.7795401-0.6285009-1.2398462-0.8073878c-0.4452715-0.1730464-0.9541044-0.291378-1.6991863-0.3253748
		C12.1394663,3.0080523,11.9010887,2.9999998,10,2.9999998L10,2.9999998z"/>
	<path class="st0" d="M10,6.4054046C8.01476,6.4054046,6.405405,8.01476,6.405405,10S8.01476,13.5945921,10,13.5945921
		S13.594595,11.98524,13.594595,10S11.98524,6.4054046,10,6.4054046z M10,12.333333
		c-1.2886648,0-2.3333335-1.0446682-2.3333335-2.333333S8.7113352,7.6666665,10,7.6666665S12.333333,8.7113352,12.333333,10
		S11.2886648,12.333333,10,12.333333z"/>
	<circle class="st0" cx="13.736618" cy="6.2633815" r="0.839999"/>
</g>
</svg>
