<?xml version="1.0" encoding="utf-8"?>
<!-- Generator: Adobe Illustrator 23.0.1, SVG Export Plug-In . SVG Version: 6.00 Build 0)  -->
<svg version="1.1" id="Layer_1" xmlns="http://www.w3.org/2000/svg" xmlns:xlink="http://www.w3.org/1999/xlink" x="0px" y="0px"
	 viewBox="0 0 20 20" style="enable-background:new 0 0 20 20;" xml:space="preserve">
<style type="text/css">
	.st0{fill:#FFFFFF;}
	.st1{fill:none;}
</style>
<rect x="0" width="20" height="20"/>
<g>
	<rect x="2.9633789" y="7.4977417" class="st0" width="2.9694214" height="9.5445557"/>
	<path class="st0" d="M17.0431519,17.0422974v-5.2345581c0-2.5705566-0.5550537-4.546814-3.5585938-4.546814
		c-1.4432373,0-2.4111328,0.7912598-2.8066406,1.541626h-0.0406494V7.4977417H7.7937012v9.5445557h2.9628906v-4.7207642
		c0-1.2451172,0.2354736-2.4514771,1.7790527-2.4514771c1.5223389,0,1.5413818,1.4238892,1.5413818,2.5307007v4.6415405H17.0431519z
		"/>
	<path class="st0" d="M4.4489136,2.7531738c-0.9526978,0-1.7209473,0.7706909-1.7209473,1.7201538
		c0,0.949707,0.7682495,1.7203979,1.7209473,1.7203979c0.9489136,0,1.7192993-0.7706909,1.7192993-1.7203979
		C6.1682129,3.5238647,5.3978271,2.7531738,4.4489136,2.7531738z"/>
</g>
</svg>
