<?xml version="1.0" encoding="utf-8"?>
<!-- Generator: Adobe Illustrator 23.0.1, SVG Export Plug-In . SVG Version: 6.00 Build 0)  -->
<svg version="1.1" id="Layer_1" xmlns="http://www.w3.org/2000/svg" xmlns:xlink="http://www.w3.org/1999/xlink" x="0px" y="0px"
	 viewBox="0 0 20 20" style="enable-background:new 0 0 20 20;" xml:space="preserve">
<style type="text/css">
	.st0{fill:#FFFFFF;}
	.st1{fill:none;}
</style>
<rect x="0" width="20" height="20"/>
<g>
	<path class="st0" d="M7.6811652,15.0794373c4.7171712,0,7.2967858-3.9080296,7.2967858-7.2967763
		c0-0.1110563-0.0022545-0.2215962-0.0073309-0.3315516c0.5007-0.3619738,0.9359941-0.813632,1.2793798-1.3278565
		c-0.4595394,0.2041135-0.9540358,0.3417034-1.4727774,0.4037189c0.5294533-0.3174415,0.9359894-0.8198271,1.1277008-1.418643
		c-0.4956274,0.2937641-1.0442533,0.5074449-1.6283998,0.6224933c-0.4679976-0.4984627-1.1344681-0.8102598-1.8719835-0.8102598
		c-1.4163933,0-2.5649576,1.1485562-2.5649576,2.5643768c0,0.2012916,0.0225544,0.3969736,0.0665359,0.5847402
		C7.7747607,7.9625463,5.8847351,6.9419785,4.6200209,5.390254C4.3995519,5.7691598,4.272686,6.2095304,4.272686,6.6792221
		c0,0.8897576,0.4527731,1.6752043,1.1412349,2.1347094C4.9932871,8.800992,4.5980296,8.6853924,4.2523899,8.4931183
		C4.2518268,8.5038204,4.2518268,8.5145578,4.2518268,8.5258121c0,1.2421637,0.8841176,2.2790785,2.057487,2.5142345
		c-0.2153888,0.0586081-0.4420567,0.0902014-0.6760554,0.0902014c-0.1652079,0-0.3259072-0.0163479-0.4820938-0.0462542
		c0.3264709,1.0188818,1.2731762,1.7603464,2.3958006,1.7812366c-0.8779144,0.6878805-1.9836245,1.0977945-3.1851878,1.0977945
		c-0.2069359,0-0.4110494-0.0118389-0.6117773-0.0355158C4.8850269,14.6548634,6.2326336,15.0794373,7.6811652,15.0794373"/>
	<rect class="st1" width="20" height="20"/>
</g>
</svg>
